<?xml version="1.0" encoding="UTF-8"?>
<svg version="1.1" xmlns="http://www.w3.org/2000/svg" width="612" height="612">
<defs>
  <clipPath id="circleClip">
    <circle cx="306" cy="306" r="306"/>
  </clipPath>
</defs>
<g clip-path="url(#circleClip)">
<circle cx="306" cy="306" r="306" fill="#FEFEFE"/>
<path d="M0 0 C201.96 0 403.92 0 612 0 C612 201.96 612 403.92 612 612 C410.04 612 208.08 612 0 612 C0 410.04 0 208.08 0 0 Z " fill="#FEFEFE" transform="translate(0,0)"/>
<path d="M0 0 C4.48012577 3.646614 8.42400949 7.80637162 10.6875 13.1875 C10.6875 14.1775 10.6875 15.1675 10.6875 16.1875 C11.29335938 16.14109375 11.89921875 16.0946875 12.5234375 16.046875 C20.16154998 15.71784862 26.66295592 16.99509849 32.765625 21.8359375 C39.50801864 28.32336668 41.78447593 34.06209131 42 43.375 C41.91841583 51.38837823 40.16801348 57.91846744 34.5625 63.8125 C31.6875 66.1875 31.6875 66.1875 29.6875 66.1875 C29.6875 66.8475 29.6875 67.5075 29.6875 68.1875 C30.42613281 68.30996094 31.16476562 68.43242187 31.92578125 68.55859375 C43.09986252 71.10318651 53.27000953 80.38796299 59.28125 89.7734375 C59.7453125 90.57007813 60.209375 91.36671875 60.6875 92.1875 C61.0484375 92.79851562 61.409375 93.40953125 61.78125 94.0390625 C64.98696027 100.77699057 63.92565277 108.91943037 63.6875 116.1875 C51.59425895 114.97245805 39.65491956 113.3093829 27.6875 111.1875 C28.30238281 112.22648437 28.91726563 113.26546875 29.55078125 114.3359375 C35.69530116 124.86903875 41.23932451 134.56032523 39.6875 147.1875 C38.0607719 152.41015337 35.93594934 155.72945984 31.6875 159.1875 C26.62704793 161.65888357 21.2143012 161.91164413 15.6875 161.1875 C13.2531274 160.26690657 10.98262883 159.17881441 8.65625 158.015625 C5.9880606 156.89329136 4.36669028 157.19237218 1.6875 158.1875 C0.35663521 158.53055655 -0.97641272 158.86538252 -2.3125 159.1875 C-2.30202637 160.07308594 -2.29155273 160.95867187 -2.28076172 161.87109375 C-1.92501924 196.49069078 -4.62803953 222.81258353 -29.625 248.9375 C-40.66330531 259.58931003 -61.95367354 275.1875 -78.3125 275.1875 C-78.28929687 276.12851562 -78.26609375 277.06953125 -78.2421875 278.0390625 C-78.22414063 279.28429687 -78.20609375 280.52953125 -78.1875 281.8125 C-78.16429687 283.04226563 -78.14109375 284.27203125 -78.1171875 285.5390625 C-78.47977888 292.31226949 -80.93677666 297.81177666 -85.765625 302.640625 C-88.66808885 305.19127505 -90.49974983 306.23431246 -94.3125 307.1875 C-94.3125 314.7775 -94.3125 322.3675 -94.3125 330.1875 C-85.7325 330.1875 -77.1525 330.1875 -68.3125 330.1875 C-68.3125 334.8075 -68.3125 339.4275 -68.3125 344.1875 C-93.7225 344.1875 -119.1325 344.1875 -145.3125 344.1875 C-145.3125 339.5675 -145.3125 334.9475 -145.3125 330.1875 C-142.0125 330.1875 -138.7125 330.1875 -135.3125 330.1875 C-135.3125 322.5975 -135.3125 315.0075 -135.3125 307.1875 C-136.6325 306.8575 -137.9525 306.5275 -139.3125 306.1875 C-144.97022266 303.005031 -148.00194602 299.44542644 -150.421875 293.4296875 C-151.40397212 289.8545094 -151.37735492 286.88423062 -151.3125 283.1875 C-151.48722263 278.22430626 -151.48722263 278.22430626 -154.17578125 274.33203125 C-155.87924846 273.40558417 -157.61480957 272.53677475 -159.37109375 271.71484375 C-162.78384414 269.94275158 -165.41627317 267.68118223 -168.1875 265.0625 C-168.68572266 264.59392578 -169.18394531 264.12535156 -169.69726562 263.64257812 C-171.24670427 262.1685283 -172.78165085 260.68083541 -174.3125 259.1875 C-175.09923096 258.42348877 -175.09923096 258.42348877 -175.90185547 257.64404297 C-181.28355985 252.39749931 -186.52424797 247.07040876 -191.4296875 241.37109375 C-203.21833062 227.69920266 -214.8678779 216.42862387 -232 209.75 C-239.65478957 206.1392502 -243.65974151 201.1473555 -247.20703125 193.47265625 C-250.04317344 185.04440332 -249.02014933 177.24712743 -245.28515625 169.30859375 C-244.35205896 167.27376714 -243.78271917 165.37030689 -243.3125 163.1875 C-244.364375 162.445 -244.364375 162.445 -245.4375 161.6875 C-249.73249271 157.95272373 -253.4963091 153.63607269 -255.3125 148.1875 C-255.84672135 139.61941148 -255.67905383 132.18306534 -252.3125 124.1875 C-253.18261719 123.63835937 -253.18261719 123.63835937 -254.0703125 123.078125 C-261.82561174 117.70316513 -266.3456613 110.45649757 -268.3125 101.1875 C-269.21678257 89.58254034 -268.43263408 78.40512491 -265.3125 67.1875 C-261.52148297 68.74234109 -259.24203242 71.1181778 -256.4375 74.0625 C-252.9183755 77.66491739 -249.66362338 80.66842857 -245.3125 83.1875 C-245.374375 81.970625 -245.43625 80.75375 -245.5 79.5 C-245.40231043 66.99573515 -240.81260712 57.48576948 -234.3125 47.1875 C-230.99499581 49.96590976 -229.30848933 53.68735167 -227.3125 57.4375 C-211.72702641 85.81817591 -189.21703194 107.07053861 -157.80078125 116.3125 C-141.69340073 120.35287317 -121.79107651 120.51466918 -106.3125 114.1875 C-105.41144531 113.88714844 -104.51039063 113.58679688 -103.58203125 113.27734375 C-84.05992524 106.45494362 -70.85411197 86.49125933 -61.3125 69.1875 C-62.06660156 68.90003906 -62.82070313 68.61257812 -63.59765625 68.31640625 C-72.17345104 64.75035633 -76.74612894 58.55354858 -80.6875 50.3125 C-82.30370179 42.23149103 -81.94415004 35.68325644 -77.87109375 28.4140625 C-75.48822916 25.00997023 -72.7355653 22.51547449 -69.3125 20.1875 C-68.5803125 19.65253906 -67.848125 19.11757812 -67.09375 18.56640625 C-64.12709792 17.09558015 -61.71881611 16.83415476 -58.43676758 16.6706543 C-51.81821773 16.47611838 -51.81821773 16.47611838 -46.33203125 13.23828125 C-45.15251808 10.92887843 -44.23097773 8.61009034 -43.3125 6.1875 C-31.35310951 -8.03447788 -15.52702154 -8.49591745 0 0 Z " fill="#FBFBFB" transform="translate(408.3125,136.8125)"/>
<path d="M0 0 C4.48012577 3.646614 8.42400949 7.80637162 10.6875 13.1875 C10.6875 14.1775 10.6875 15.1675 10.6875 16.1875 C11.29335938 16.14109375 11.89921875 16.0946875 12.5234375 16.046875 C20.16154998 15.71784862 26.66295592 16.99509849 32.765625 21.8359375 C39.50801864 28.32336668 41.78447593 34.06209131 42 43.375 C41.91841583 51.38837823 40.16801348 57.91846744 34.5625 63.8125 C31.6875 66.1875 31.6875 66.1875 29.6875 66.1875 C29.6875 66.8475 29.6875 67.5075 29.6875 68.1875 C30.42613281 68.30996094 31.16476562 68.43242187 31.92578125 68.55859375 C43.09986252 71.10318651 53.27000953 80.38796299 59.28125 89.7734375 C59.7453125 90.57007813 60.209375 91.36671875 60.6875 92.1875 C61.0484375 92.79851562 61.409375 93.40953125 61.78125 94.0390625 C64.98696027 100.77699057 63.92565277 108.91943037 63.6875 116.1875 C51.59425895 114.97245805 39.65491956 113.3093829 27.6875 111.1875 C28.30238281 112.22648437 28.91726563 113.26546875 29.55078125 114.3359375 C35.69530116 124.86903875 41.23932451 134.56032523 39.6875 147.1875 C38.0607719 152.41015337 35.93594934 155.72945984 31.6875 159.1875 C26.62704793 161.65888357 21.2143012 161.91164413 15.6875 161.1875 C13.2531274 160.26690657 10.98262883 159.17881441 8.65625 158.015625 C5.9880606 156.89329136 4.36669028 157.19237218 1.6875 158.1875 C0.35663521 158.53055655 -0.97641272 158.86538252 -2.3125 159.1875 C-2.30202637 160.07308594 -2.29155273 160.95867187 -2.28076172 161.87109375 C-1.92501924 196.49069078 -4.62803953 222.81258353 -29.625 248.9375 C-40.66330531 259.58931003 -61.95367354 275.1875 -78.3125 275.1875 C-78.28929687 276.12851562 -78.26609375 277.06953125 -78.2421875 278.0390625 C-78.22414063 279.28429687 -78.20609375 280.52953125 -78.1875 281.8125 C-78.16429687 283.04226563 -78.14109375 284.27203125 -78.1171875 285.5390625 C-78.47977888 292.31226949 -80.93677666 297.81177666 -85.765625 302.640625 C-88.66808885 305.19127505 -90.49974983 306.23431246 -94.3125 307.1875 C-94.3125 314.7775 -94.3125 322.3675 -94.3125 330.1875 C-85.7325 330.1875 -77.1525 330.1875 -68.3125 330.1875 C-68.3125 334.8075 -68.3125 339.4275 -68.3125 344.1875 C-93.7225 344.1875 -119.1325 344.1875 -145.3125 344.1875 C-145.3125 339.5675 -145.3125 334.9475 -145.3125 330.1875 C-142.0125 330.1875 -138.7125 330.1875 -135.3125 330.1875 C-135.3125 322.5975 -135.3125 315.0075 -135.3125 307.1875 C-136.6325 306.8575 -137.9525 306.5275 -139.3125 306.1875 C-144.97022266 303.005031 -148.00194602 299.44542644 -150.421875 293.4296875 C-151.40397212 289.8545094 -151.37735492 286.88423062 -151.3125 283.1875 C-151.48722263 278.22430626 -151.48722263 278.22430626 -154.17578125 274.33203125 C-155.87924846 273.40558417 -157.61480957 272.53677475 -159.37109375 271.71484375 C-162.78384414 269.94275158 -165.41627317 267.68118223 -168.1875 265.0625 C-168.68572266 264.59392578 -169.18394531 264.12535156 -169.69726562 263.64257812 C-171.24670427 262.1685283 -172.78165085 260.68083541 -174.3125 259.1875 C-175.09923096 258.42348877 -175.09923096 258.42348877 -175.90185547 257.64404297 C-181.28355985 252.39749931 -186.52424797 247.07040876 -191.4296875 241.37109375 C-203.21833062 227.69920266 -214.8678779 216.42862387 -232 209.75 C-239.65478957 206.1392502 -243.65974151 201.1473555 -247.20703125 193.47265625 C-250.04317344 185.04440332 -249.02014933 177.24712743 -245.28515625 169.30859375 C-244.35205896 167.27376714 -243.78271917 165.37030689 -243.3125 163.1875 C-244.364375 162.445 -244.364375 162.445 -245.4375 161.6875 C-249.73249271 157.95272373 -253.4963091 153.63607269 -255.3125 148.1875 C-255.84672135 139.61941148 -255.67905383 132.18306534 -252.3125 124.1875 C-253.18261719 123.63835937 -253.18261719 123.63835937 -254.0703125 123.078125 C-261.82561174 117.70316513 -266.3456613 110.45649757 -268.3125 101.1875 C-269.21678257 89.58254034 -268.43263408 78.40512491 -265.3125 67.1875 C-261.52148297 68.74234109 -259.24203242 71.1181778 -256.4375 74.0625 C-252.9183755 77.66491739 -249.66362338 80.66842857 -245.3125 83.1875 C-245.374375 81.970625 -245.43625 80.75375 -245.5 79.5 C-245.40231043 66.99573515 -240.81260712 57.48576948 -234.3125 47.1875 C-230.99499581 49.96590976 -229.30848933 53.68735167 -227.3125 57.4375 C-211.72702641 85.81817591 -189.21703194 107.07053861 -157.80078125 116.3125 C-141.69340073 120.35287317 -121.79107651 120.51466918 -106.3125 114.1875 C-105.41144531 113.88714844 -104.51039063 113.58679688 -103.58203125 113.27734375 C-84.05992524 106.45494362 -70.85411197 86.49125933 -61.3125 69.1875 C-62.06660156 68.90003906 -62.82070313 68.61257812 -63.59765625 68.31640625 C-72.17345104 64.75035633 -76.74612894 58.55354858 -80.6875 50.3125 C-82.30370179 42.23149103 -81.94415004 35.68325644 -77.87109375 28.4140625 C-75.48822916 25.00997023 -72.7355653 22.51547449 -69.3125 20.1875 C-68.5803125 19.65253906 -67.848125 19.11757812 -67.09375 18.56640625 C-64.12709792 17.09558015 -61.71881611 16.83415476 -58.43676758 16.6706543 C-51.81821773 16.47611838 -51.81821773 16.47611838 -46.33203125 13.23828125 C-45.15251808 10.92887843 -44.23097773 8.61009034 -43.3125 6.1875 C-31.35310951 -8.03447788 -15.52702154 -8.49591745 0 0 Z M-44.28515625 67.60546875 C-47.22909515 71.67522164 -49.69726538 75.8538718 -52 80.3125 C-63.89148684 102.75648588 -82.1243214 120.55704256 -106.1875 129.0625 C-115.33906229 131.65830881 -123.98496474 132.54619924 -133.5 132.5 C-134.69455811 132.49508545 -135.88911621 132.4901709 -137.11987305 132.48510742 C-168.23609527 132.07259377 -195.29942651 117.6476009 -216.73339844 95.73486328 C-221.72456243 90.50594094 -226.21575128 85.1343933 -230.3125 79.1875 C-230.6425 79.1875 -230.9725 79.1875 -231.3125 79.1875 C-231.3125 86.1175 -231.3125 93.0475 -231.3125 100.1875 C-238.66098101 99.25927082 -244.98360076 98.3584061 -251.60546875 94.9921875 C-253.29948106 94.04536832 -253.29948106 94.04536832 -255.3125 94.1875 C-254.43180244 100.72043562 -253.45612708 106.67675768 -248.3125 111.1875 C-242.67158566 114.46568206 -236.63344213 116.64238081 -230.3125 118.1875 C-230.68761719 118.6721875 -231.06273437 119.156875 -231.44921875 119.65625 C-233.09707246 121.8146478 -234.71039153 123.9949431 -236.3125 126.1875 C-236.79976562 126.84621094 -237.28703125 127.50492187 -237.7890625 128.18359375 C-241.0614342 132.93905789 -242.82490321 137.33302081 -242.3125 143.1875 C-239.77693397 149.06540306 -234.83868844 152.29201641 -229.3125 155.1875 C-226.02330173 156.4089408 -222.72456867 157.3754419 -219.3125 158.1875 C-219.94865234 158.87972656 -219.94865234 158.87972656 -220.59765625 159.5859375 C-231.18399616 171.09493096 -231.18399616 171.09493096 -234.5234375 185.6484375 C-234.23198488 189.1566635 -233.35757474 191.32439537 -231.3125 194.1875 C-227.70891769 197.23668503 -224.07862928 198.68742875 -219.6875 200.375 C-212.65238558 203.2221317 -207.12968685 207.3716322 -201.3125 212.1875 C-200.49265625 212.86554688 -199.6728125 213.54359375 -198.828125 214.2421875 C-189.73595739 222.1161235 -181.55222895 231.1710825 -173.75 240.3125 C-164.65759671 250.77907003 -154.7971572 261.62778418 -141.3125 266.1875 C-139.9925 266.1875 -138.6725 266.1875 -137.3125 266.1875 C-137.32297363 266.86329102 -137.33344727 267.53908203 -137.34423828 268.23535156 C-137.38585976 271.30269642 -137.41184573 274.36998178 -137.4375 277.4375 C-137.46263672 279.03271484 -137.46263672 279.03271484 -137.48828125 280.66015625 C-137.49472656 281.68496094 -137.50117188 282.70976562 -137.5078125 283.765625 C-137.51828613 284.70825195 -137.52875977 285.65087891 -137.53955078 286.62207031 C-137.30070895 289.32072613 -136.74967052 290.90926173 -135.3125 293.1875 C-132.08956714 295.4895949 -129.19253676 295.66260654 -125.3125 295.1875 C-122.61259338 293.38756226 -120.7706135 292.103727 -119.3125 289.1875 C-119.22778636 287.37408158 -119.20528917 285.55755839 -119.21484375 283.7421875 C-119.21806641 282.66582031 -119.22128906 281.58945312 -119.22460938 280.48046875 C-119.23298828 279.35253906 -119.24136719 278.22460938 -119.25 277.0625 C-119.25676758 275.35900391 -119.25676758 275.35900391 -119.26367188 273.62109375 C-119.27548385 270.80984362 -119.29195493 267.9986977 -119.3125 265.1875 C-118.43235229 265.22677612 -118.43235229 265.22677612 -117.53442383 265.2668457 C-90.33978171 266.30964578 -62.10028412 260.30850636 -41.5 241.375 C-25.86393569 226.44796405 -16.80943746 210.00029571 -15.3125 188.1875 C-15.19836137 183.16575705 -15.21781914 178.14769036 -15.25 173.125 C-15.25502686 171.76888187 -15.25958766 170.41276192 -15.26367188 169.05664062 C-15.27537921 165.76688006 -15.29177789 162.47721406 -15.3125 159.1875 C-15.91650635 159.01661865 -16.5205127 158.8457373 -17.14282227 158.66967773 C-21.7971762 157.25607069 -25.15253707 156.19566794 -28.25 152.25 C-28.79527344 151.58097656 -29.34054687 150.91195312 -29.90234375 150.22265625 C-31.25498596 148.27050502 -32.27492356 146.31849032 -33.3125 144.1875 C-34.20388672 144.22677612 -34.20388672 144.22677612 -35.11328125 144.2668457 C-37.84607742 144.37176935 -40.57844858 144.43612029 -43.3125 144.5 C-44.24707031 144.54189453 -45.18164062 144.58378906 -46.14453125 144.62695312 C-52.79568601 144.74323205 -57.21939447 143.58252627 -62.3125 139.1875 C-68.22151739 131.76334994 -67.40470407 125.40790725 -67.3125 116.1875 C-63.0225 117.1775 -58.7325 118.1675 -54.3125 119.1875 C-54.37760417 121.43359375 -54.44270833 123.6796875 -54.5078125 125.92578125 C-54.47067322 128.47138576 -54.47067322 128.47138576 -52.3125 131.1875 C-42.24726773 132.41593386 -33.74136197 130.33928251 -24.3125 127.1875 C-24.15394531 128.05632812 -23.99539063 128.92515625 -23.83203125 129.8203125 C-22.16087868 139.19961703 -22.16087868 139.19961703 -16.3125 146.1875 C-12.1398762 147.60435019 -8.41592375 148.00417021 -4.25 146.38671875 C1.46416583 142.40896969 3.2034352 135.8832897 4.40332031 129.30322266 C5.94918021 117.79426918 4.73851116 105.69231856 3.6875 94.1875 C4.60917969 94.22488281 5.53085937 94.26226562 6.48046875 94.30078125 C10.62516988 94.1543789 12.50980525 92.77399573 15.6875 90.1875 C18.32995401 82.26013798 17.67314235 73.17104308 14.25 65.625 C10.1274539 58.44192201 4.65435946 55.06505291 -3 52.3125 C-20.48034327 47.79968976 -33.20296831 54.02155918 -44.28515625 67.60546875 Z " fill="#070707" transform="translate(408.3125,136.8125)"/>
<path d="M0 0 C0.94921875 1.70703125 0.94921875 1.70703125 1.6875 3.8125 C1.93886719 4.49957031 2.19023437 5.18664062 2.44921875 5.89453125 C3 8 3 8 3 12 C-5.27253776 15.31748528 -13.56290197 17.76603676 -22.25 19.75 C-23.61439209 20.06553833 -23.61439209 20.06553833 -25.00634766 20.38745117 C-47.25926697 25.31307019 -70.70030213 23.82280535 -93 20 C-89.62810245 29.35907175 -82.39966754 36.86819282 -73.875 41.8125 C-69.3806007 43.66888232 -65.32018817 44.12469379 -60.48046875 44.09765625 C-59.45888672 44.09443359 -58.43730469 44.09121094 -57.38476562 44.08789062 C-55.80211914 44.07532227 -55.80211914 44.07532227 -54.1875 44.0625 C-52.57584961 44.05573242 -52.57584961 44.05573242 -50.93164062 44.04882812 C-48.28770317 44.03707729 -45.64388048 44.02064787 -43 44 C-42.7417041 44.53399414 -42.4834082 45.06798828 -42.21728516 45.61816406 C-38.24327869 53.72093663 -34.63418878 59.26977495 -25.76953125 62.33984375 C-16.34372248 64.58661622 -8.7303612 62.6833408 0 59 C1.99659018 58.32318977 3.99464622 57.65038501 6 57 C6.39832031 57.62648438 6.79664063 58.25296875 7.20703125 58.8984375 C7.73683594 59.71570313 8.26664062 60.53296875 8.8125 61.375 C9.33457031 62.18710937 9.85664063 62.99921875 10.39453125 63.8359375 C11.98437197 66.23350241 11.98437197 66.23350241 15 68 C22.42667133 68.95150365 29.0449625 67.53459067 36 65 C36.84384675 66.41042956 37.67469496 67.82864132 38.5 69.25 C38.9640625 70.03890625 39.428125 70.8278125 39.90625 71.640625 C41 74 41 74 41 78 C39.60721983 78.65239158 38.21060788 79.29660552 36.8125 79.9375 C36.03519531 80.29714844 35.25789062 80.65679687 34.45703125 81.02734375 C25.46018539 84.58889323 15.82346088 83.92434038 7.05859375 80.16796875 C5 79 5 79 3.4921875 77.34765625 C2.08061685 75.78843174 2.08061685 75.78843174 -0.05078125 75.890625 C-0.79714844 76.00921875 -1.54351562 76.1278125 -2.3125 76.25 C-3.11429687 76.36730469 -3.91609375 76.48460937 -4.7421875 76.60546875 C-6.47681216 76.9085779 -8.20801482 77.23132199 -9.9375 77.5625 C-21.34553246 79.19221892 -31.23725791 77.17895069 -41 71 C-44.87912237 67.68981558 -48.17079153 64.2438127 -51 60 C-54.10613112 59.56028852 -54.10613112 59.56028852 -57.75 59.5625 C-73.89949785 58.87943967 -85.66169865 53.1714506 -96.83203125 41.5859375 C-105.86126964 30.81592702 -112.00554013 17.9239395 -114 4 C-113.70836775 2.65692907 -113.38213275 1.32017554 -113 0 C-111.14761719 0.48919922 -111.14761719 0.48919922 -109.2578125 0.98828125 C-103.85494016 2.39554854 -98.43108096 3.70660034 -93 5 C-92.29584961 5.1753125 -91.59169922 5.350625 -90.86621094 5.53125 C-79.65419759 8.24520179 -68.34751208 8.31226153 -56.875 8.375 C-55.7310376 8.38691879 -55.7310376 8.38691879 -54.56396484 8.39907837 C-40.42769353 8.51210623 -27.20948751 6.63265204 -13.6875 2.375 C-12.97400391 2.1584375 -12.26050781 1.941875 -11.52539062 1.71875 C-2.81159014 -0.93719671 -2.81159014 -0.93719671 0 0 Z " fill="#080808" transform="translate(319,278)"/>
<path d="M0 0 C5.15164078 2.34078278 8.32516386 5.32678072 10.78515625 10.5 C11.88507211 13.74475179 12.14062138 16.66204965 12.34765625 20.078125 C12.45980469 21.82029297 12.45980469 21.82029297 12.57421875 23.59765625 C12.64769531 24.91830078 12.64769531 24.91830078 12.72265625 26.265625 C13.36332031 25.8325 14.00398438 25.399375 14.6640625 24.953125 C23.59277518 19.20468405 23.59277518 19.20468405 29.72265625 20.265625 C35.06005098 22.25406617 38.17599449 25.17230148 40.72265625 30.265625 C41.30958427 35.07651039 41.13132544 38.46237866 38.91015625 42.828125 C38.18828125 43.6325 37.46640625 44.436875 36.72265625 45.265625 C35.73265625 45.265625 34.74265625 45.265625 33.72265625 45.265625 C33.18640625 44.564375 32.65015625 43.863125 32.09765625 43.140625 C26.2216349 36.02754652 17.69609734 31.93751876 8.72265625 30.265625 C5.17879347 29.95712227 1.65401935 29.85750093 -1.90234375 29.828125 C-2.7727832 29.81797363 -3.64322266 29.80782227 -4.54003906 29.79736328 C-13.2009927 29.91334361 -20.98873236 31.67403894 -27.96484375 37.015625 C-28.88007813 37.71042969 -29.7953125 38.40523437 -30.73828125 39.12109375 C-33.04988286 41.07350803 -35.05690228 43.09368052 -37.08984375 45.328125 C-39.8870234 48.22496663 -39.8870234 48.22496663 -43.27734375 48.578125 C-48.44541536 46.31709367 -52.16152632 42.93935114 -55.27734375 38.265625 C-55.98085701 33.43919685 -56.01221916 29.4819705 -53.46484375 25.265625 C-49.22288406 21.38726186 -46.54733438 20.71498376 -40.97265625 20.8125 C-36.22430647 21.6107733 -33.00494733 24.38400237 -29.27734375 27.265625 C-27.28470796 28.6099391 -25.28612972 29.94556565 -23.27734375 31.265625 C-23.29829102 30.66089355 -23.31923828 30.05616211 -23.34082031 29.43310547 C-23.4244332 26.66911729 -23.47614429 23.90539587 -23.52734375 21.140625 C-23.56085938 20.18929687 -23.594375 19.23796875 -23.62890625 18.2578125 C-23.72494918 11.34272167 -22.52312467 7.73748021 -17.70703125 2.5859375 C-12.21210781 -1.63880263 -6.57628665 -2.12065504 0 0 Z " fill="#F6F6F6" transform="translate(396.27734375,145.734375)"/>
<path d="M0 0 C0.99 0.33 1.98 0.66 3 1 C3 8.59 3 16.18 3 24 C-1.29 24 -5.58 24 -10 24 C-10 16.41 -10 8.82 -10 1 C-5.59696044 -1.20151978 -4.58172142 -1.07231778 0 0 Z " fill="#FBFBFB" transform="translate(297,443)"/>
<path d="M0 0 C3.48326597 0.85529699 4.97293913 2.60978164 6.97265625 5.484375 C7.59765625 8.484375 7.59765625 8.484375 6.97265625 11.484375 C4.97293913 14.35896836 3.48326597 16.11345301 0 16.96875 C-3.74624162 17.22083355 -5.667774 16.79000928 -8.52734375 14.359375 C-10.29473679 10.97187167 -10.65508945 9.2508492 -10.02734375 5.484375 C-7.61458248 0.85991589 -5.2803869 -0.35531575 0 0 Z " fill="#0E0E0E" transform="translate(402.02734375,200.515625)"/>
<path d="M0 0 C1.8253125 0.0309375 1.8253125 0.0309375 3.6875 0.0625 C4.25986326 10.97979914 4.25986326 10.97979914 0.6875 15.0625 C-1.0625 16.4375 -1.0625 16.4375 -3.3125 17.0625 C-5.6225 16.7325 -7.9325 16.4025 -10.3125 16.0625 C-9.9825 11.1125 -9.6525 6.1625 -9.3125 1.0625 C-5.83919872 0.36783974 -3.39947137 -0.05761816 0 0 Z " fill="#F8F8F8" transform="translate(312.3125,414.9375)"/>
<path d="M0 0 C8.0155121 2.50484753 13.69064712 7.99730157 18 15 C18 15.66 18 16.32 18 17 C11.07 16.01 4.14 15.02 -3 14 C-2.19838392 9.19030352 -1.21539644 4.69953288 0 0 Z " fill="#EFEFEF" transform="translate(439,220)"/>
<path d="M0 0 C4.9397204 4.53499541 7.55498879 9.91565057 8.28515625 16.6171875 C8.3125 19.0625 8.3125 19.0625 8 23 C6.11940967 24.88059033 3.50109962 24.12361218 1.0078125 24.1328125 C-1 24 -1 24 -4 23 C-3.87882812 22.34515625 -3.75765625 21.6903125 -3.6328125 21.015625 C-2.34866543 14.02196247 -1.15108663 7.0167302 0 0 Z " fill="#F3F3F3" transform="translate(426,260)"/>
<path d="M0 0 C3.48331435 3.01887244 4.79157144 5.56909529 6 10 C5.01 10.66 4.02 11.32 3 12 C2.34 11.34 1.68 10.68 1 10 C0.01 10.495 0.01 10.495 -1 11 C-0.67 7.37 -0.34 3.74 0 0 Z " fill="#E3E3E3" transform="translate(426,260)"/>
<path d="M0 0 C2.79828356 0.38597015 3.8205884 0.80136573 5.75 2.9375 C7 5 7 5 7 7 C4.36 6.67 1.72 6.34 -1 6 C-0.67 4.02 -0.34 2.04 0 0 Z " fill="#E4E4E4" transform="translate(450,230)"/>
<path d="M0 0 C0.99 0.33 1.98 0.66 3 1 C1.34594401 2.65405599 -0.29831983 4.05277513 -2.125 5.5 C-3.07375 6.325 -4.0225 7.15 -5 8 C-5 8.66 -5 9.32 -5 10 C-9.31818182 14.65909091 -9.31818182 14.65909091 -12 16 C-10.58794973 11.70983633 -8.50383651 9.03782149 -5.4375 5.75 C-4.22900391 4.44289062 -4.22900391 4.44289062 -2.99609375 3.109375 C-1 1 -1 1 0 0 Z " fill="#DFDFDF" transform="translate(373,195)"/>
<path d="M0 0 C0.66 0.66 1.32 1.32 2 2 C-1.63 5.63 -5.26 9.26 -9 13 C-9.66 12.67 -10.32 12.34 -11 12 C-10.37351562 11.38511719 -9.74703125 10.77023437 -9.1015625 10.13671875 C-8.28429687 9.32847656 -7.46703125 8.52023437 -6.625 7.6875 C-5.40683594 6.48673828 -5.40683594 6.48673828 -4.1640625 5.26171875 C-1.87395158 2.99990063 -1.87395158 2.99990063 0 0 Z " fill="#CCCCCC" transform="translate(387,375)"/>
<path d="M0 0 C0.66 0.33 1.32 0.66 2 1 C0.50902342 4.7952131 -1.75700849 6.61042731 -5 9 C-5 4.61031544 -2.87194899 3.23094261 0 0 Z " fill="#E1E1E1" transform="translate(340,240)"/>
<path d="M0 0 C0.66 0.33 1.32 0.66 2 1 C1.25 2.9375 1.25 2.9375 0 5 C-1.9375 5.625 -1.9375 5.625 -4 6 C-4.99 6.66 -5.98 7.32 -7 8 C-5.50902342 4.2047869 -3.24299151 2.38957269 0 0 Z " fill="#E0E0E0" transform="translate(382,146)"/>
<path d="M0 0 C0.66 0.33 1.32 0.66 2 1 C1.34 2.32 0.68 3.64 0 5 C-0.66 5 -1.32 5 -2 5 C-2 5.66 -2 6.32 -2 7 C-3.32 6.34 -4.64 5.68 -6 5 C-4.02 3.35 -2.04 1.7 0 0 Z " fill="#DFDFDF" transform="translate(371,391)"/>
</g>
</svg>
